# xmcd
#
# Track frame offsets: 
#        150
#        17587
#        31838
#        43207
#        58955
#        76390
#        89528
#        105154
#        115863
#        127140
#        144802
#        158656
#
# Disc length: 2381 seconds
#
# Revision: 2
# Processed by: cddbd v1.5.2PL0 Copyright (c) Steve Scherf et al.
# Submitted via: ExactAudioCopy v0.99pb5
#
DISCID=94094b0c
DTITLE=Andrea Lerpscher und Freunde - So wird ein Tag zum Hit
DYEAR=1900
DGENRE=Folk
TTITLE0=So wird ein Tag zum Hit
TTITLE1=Slalom-Walzer
TTITLE2=Auf der Alp
TTITLE3=Willkommen im Allgäu
TTITLE4=Walzer für di und mi
TTITLE5=Bella Preziosa
TTITLE6=Kreuz und Quer durchs Oberallgäu
TTITLE7=I trau mi net
TTITLE8=Erinnerungen an Slowenien
TTITLE9=O sole mio
TTITLE10=Gipfelgruss
TTITLE11=War des nicht erst gestern
EXTD=
EXTT0=
EXTT1=
EXTT2=
EXTT3=
EXTT4=
EXTT5=
EXTT6=
EXTT7=
EXTT8=
EXTT9=
EXTT10=
EXTT11=
PLAYORDER=
